<svg width="195" height="194" viewBox="0 0 195 194" fill="none" xmlns="http://www.w3.org/2000/svg">
	<path
		d="M158.125 45.4688H135.489L124.266 28.6302C123.99 28.216 123.616 27.8763 123.177 27.641C122.738 27.4057 122.248 27.2822 121.75 27.2812H73.25C72.7521 27.2822 72.2621 27.4057 71.8233 27.641C71.3845 27.8763 71.0104 28.216 70.7341 28.6302L59.4957 45.4688H36.875C32.8553 45.4688 29.0003 47.0656 26.1579 49.9079C23.3156 52.7503 21.7188 56.6053 21.7188 60.625V145.5C21.7188 149.52 23.3156 153.375 26.1579 156.217C29.0003 159.059 32.8553 160.656 36.875 160.656H158.125C162.145 160.656 166 159.059 168.842 156.217C171.684 153.375 173.281 149.52 173.281 145.5V60.625C173.281 56.6053 171.684 52.7503 168.842 49.9079C166 47.0656 162.145 45.4688 158.125 45.4688ZM167.219 145.5C167.219 147.912 166.261 150.225 164.555 151.93C162.85 153.636 160.537 154.594 158.125 154.594H36.875C34.4632 154.594 32.1502 153.636 30.4447 151.93C28.7393 150.225 27.7812 147.912 27.7812 145.5V60.625C27.7812 58.2132 28.7393 55.9002 30.4447 54.1947C32.1502 52.4893 34.4632 51.5312 36.875 51.5312H61.125C61.6242 51.5316 62.1157 51.4086 62.5559 51.1733C62.9962 50.938 63.3715 50.5976 63.6485 50.1823L74.8641 33.3438H120.121L131.351 50.1823C131.629 50.5976 132.004 50.938 132.444 51.1733C132.884 51.4086 133.376 51.5316 133.875 51.5312H158.125C160.537 51.5312 162.85 52.4893 164.555 54.1947C166.261 55.9002 167.219 58.2132 167.219 60.625V145.5ZM97.5 69.7188C91.5048 69.7188 85.6441 71.4965 80.6593 74.8273C75.6744 78.1581 71.7892 82.8923 69.4949 88.4312C67.2006 93.97 66.6003 100.065 67.7699 105.945C68.9396 111.825 71.8265 117.226 76.0658 121.465C80.3051 125.705 85.7063 128.592 91.5863 129.761C97.4664 130.931 103.561 130.331 109.1 128.036C114.639 125.742 119.373 121.857 122.704 116.872C126.035 111.887 127.812 106.026 127.812 100.031C127.812 91.9919 124.619 84.2818 118.934 78.5971C113.249 72.9124 105.539 69.7188 97.5 69.7188ZM97.5 124.281C92.7038 124.281 88.0153 122.859 84.0274 120.194C80.0395 117.53 76.9313 113.742 75.0959 109.311C73.2605 104.88 72.7803 100.004 73.716 95.3003C74.6516 90.5963 76.9612 86.2753 80.3527 82.8839C83.7441 79.4925 88.065 77.1829 92.7691 76.2472C97.4731 75.3115 102.349 75.7917 106.78 77.6272C111.211 79.4626 114.999 82.5708 117.663 86.5587C120.328 90.5466 121.75 95.2351 121.75 100.031C121.75 106.463 119.195 112.631 114.647 117.179C110.1 121.726 103.932 124.281 97.5 124.281Z"
		fill="currentColor"
	/>
</svg>
