<svg width="19" height="20" viewBox="0 0 19 20" fill="none" xmlns="http://www.w3.org/2000/svg">
	<path d="M6.82749 14.9998L13.4135 8.41384C13.6045 8.22934 13.7569 8.00865 13.8617 7.76464C13.9665 7.52064 14.0217 7.2582 14.024 6.99264C14.0263 6.72708 13.9757 6.46372 13.8751 6.21793C13.7746 5.97214 13.6261 5.74883 13.4383 5.56105C13.2505 5.37326 13.0272 5.22476 12.7814 5.12419C12.5356 5.02363 12.2722 4.97303 12.0067 4.97533C11.7411 4.97764 11.4787 5.03281 11.2347 5.13763C10.9907 5.24245 10.77 5.39482 10.5855 5.58584L4.17149 12.1718C3.44286 12.9262 3.03968 13.9367 3.04879 14.9854C3.05791 16.0342 3.47859 17.0375 4.22022 17.7791C4.96185 18.5207 5.9651 18.9414 7.01389 18.9505C8.06267 18.9596 9.07308 18.5565 9.82749 17.8278L16.2425 11.2428C17.3678 10.1175 18 8.59127 18 6.99984C18 5.4084 17.3678 3.88215 16.2425 2.75684C15.1172 1.63152 13.5909 0.999329 11.9995 0.999329C10.4081 0.999329 8.8818 1.63152 7.75649 2.75684L1.49949 8.99984" stroke="#3D4046" stroke-width="2" stroke-linecap="round" stroke-linejoin="round"/>
</svg>
