<svg width="24" height="24" viewBox="0 0 24 24" fill="none" xmlns="http://www.w3.org/2000/svg">
<g clip-path="url(#clip0_8959_4992)">
<path fill-rule="evenodd" clip-rule="evenodd" d="M5.86896 3.55928C7.44775 2.97481 9.15948 2.84492 10.8084 3.18428C12.4573 3.52368 13.9784 4.31882 15.1981 5.4792C16.2276 6.45881 17.006 7.66685 17.4774 8.99971H17.9998C19.591 8.99971 21.1178 9.63241 22.243 10.7575C23.3679 11.8827 23.9998 13.4087 23.9998 14.9997C23.9998 16.5908 23.3679 18.1167 22.243 19.2419C21.1178 20.3671 19.5911 20.9997 17.9998 20.9997H8.99982C7.31674 21.0008 5.667 20.5297 4.2381 19.6403C2.80892 18.7506 1.65686 17.4777 0.914861 15.9665C0.172996 14.4555 -0.130006 12.7662 0.0398611 11.0915C0.209855 9.41658 0.846324 7.82225 1.87678 6.49092C2.90717 5.1597 4.29029 4.14378 5.86896 3.55928ZM10.4051 5.14326C9.12264 4.87935 7.7912 4.98069 6.5633 5.43525C5.33552 5.88989 4.26018 6.68018 3.45881 7.71553C2.65744 8.75089 2.16237 9.99012 2.0301 11.2927C1.89791 12.5953 2.13374 13.9093 2.71076 15.0847C3.28786 16.26 4.18318 17.2501 5.29474 17.9421C6.40626 18.634 7.68956 19.0006 8.99885 18.9997H17.9998C19.0607 18.9997 20.0778 18.5779 20.8279 17.8278C21.5781 17.0777 21.9998 16.0606 21.9998 14.9997C21.9998 13.9389 21.5781 12.9217 20.8279 12.1716C20.0778 11.4216 19.0606 10.9997 17.9998 10.9997H16.7401C16.2841 10.9996 15.8853 10.6912 15.7713 10.2497C15.4439 8.98195 14.7677 7.83099 13.8192 6.92842C12.8706 6.02592 11.6875 5.40724 10.4051 5.14326Z" fill="white"/>
</g>
<defs>
<clipPath id="clip0_8959_4992">
<rect width="24" height="24" fill="white"/>
</clipPath>
</defs>
</svg>
