<svg width="24" height="25" viewBox="0 0 24 25" fill="none" xmlns="http://www.w3.org/2000/svg">
<g clip-path="url(#clip0_8996_1747)">
<path fill-rule="evenodd" clip-rule="evenodd" d="M0.293061 0.398681C0.659178 0.0325873 1.23819 0.00997792 1.63095 0.330322L1.70712 0.398681L23.7071 22.3987L23.7755 22.4749C24.0955 22.8676 24.0731 23.4467 23.7071 23.8127C23.3411 24.1788 22.762 24.2012 22.3692 23.8811L22.2931 23.8127L17.8253 19.345C16.2189 20.3787 14.3703 20.9814 12.4581 21.0891L12.0167 21.1057C12.0113 21.1058 12.0055 21.1057 12.0001 21.1057C8.10075 21.1057 5.10462 18.8788 3.1456 16.7893C2.15734 15.7351 1.40232 14.6847 0.894624 13.8987C0.640316 13.5049 0.446361 13.174 0.314545 12.9397C0.248761 12.8227 0.197957 12.729 0.163178 12.6633C0.145917 12.6307 0.131694 12.6047 0.122163 12.5862C0.117532 12.5772 0.11417 12.5692 0.11142 12.5637C0.110107 12.5611 0.107514 12.5569 0.107514 12.5569L0.106538 12.5549L0.105561 12.554C-0.0397108 12.2634 -0.0343057 11.9193 0.119233 11.6331L0.371186 11.178C1.47111 9.25352 2.89175 7.53318 4.56943 6.08911L0.293061 1.81274L0.224702 1.73657C-0.0956487 1.3438 -0.0730549 0.764797 0.293061 0.398681ZM5.98642 7.5061C4.45003 8.8061 3.15032 10.364 2.14365 12.1086C2.25263 12.2968 2.39612 12.5368 2.57431 12.8127C3.03533 13.5265 3.71834 14.4768 4.60458 15.4221C6.39328 17.3299 8.89351 19.1003 11.9884 19.1047C13.5348 19.0786 15.0416 18.6568 16.3702 17.8899L14.0489 15.5686C13.8901 15.6681 13.7248 15.7576 13.5528 15.8342C13.0624 16.0527 12.533 16.1704 11.9962 16.1799C11.4592 16.1894 10.9248 16.091 10.4269 15.8899C9.92894 15.6888 9.47652 15.3887 9.09677 15.009C8.71706 14.6293 8.41709 14.1768 8.21591 13.679C8.01477 13.181 7.91644 12.6466 7.92587 12.1096C7.9354 11.5729 8.05315 11.0434 8.27158 10.553C8.34821 10.381 8.43668 10.2148 8.53623 10.0559L5.98642 7.5061ZM10.0284 11.5481C9.96433 11.7405 9.92946 11.9423 9.92587 12.1458C9.92124 12.414 9.96991 12.6811 10.0704 12.9299C10.171 13.1788 10.321 13.4052 10.5108 13.595C10.7007 13.7847 10.927 13.9349 11.1759 14.0354C11.4247 14.1359 11.6918 14.1846 11.9601 14.1799C12.1633 14.1763 12.3644 14.1404 12.5567 14.0764L10.0284 11.5481Z" fill="#5D5E61"/>
<path d="M12.0011 3.10669C15.9 3.10713 18.8958 5.33271 20.8546 7.42212C21.8428 8.47633 22.5979 9.52673 23.1056 10.3127C23.3599 10.7065 23.5539 11.0375 23.6856 11.2717C23.7514 11.3887 23.8023 11.4824 23.837 11.5481C23.8543 11.5807 23.8685 11.6068 23.878 11.6252C23.8826 11.6343 23.886 11.6423 23.8888 11.6477C23.8901 11.6503 23.8927 11.6545 23.8927 11.6545L23.8936 11.6565L23.8946 11.6575C24.0213 11.9111 24.0338 12.2061 23.9327 12.467L23.8819 12.5774C23.2422 13.7742 22.4793 14.9013 21.6056 15.9397L21.5352 16.0149C21.1715 16.3673 20.5924 16.3938 20.1964 16.0608C19.7738 15.7052 19.7198 15.0742 20.0753 14.6516L20.3643 14.2991C20.917 13.6064 21.4151 12.8719 21.8565 12.1038C21.7475 11.9155 21.6043 11.675 21.4259 11.3987C20.9649 10.6849 20.2819 9.73468 19.3956 8.78931C17.6047 6.87903 15.1004 5.10578 12.0001 5.10571H11.9981C11.3688 5.10423 10.7408 5.17614 10.128 5.31958C9.59039 5.44541 9.05287 5.11102 8.92685 4.57349C8.80104 4.03584 9.13439 3.49829 9.67197 3.37231C10.4356 3.19357 11.2178 3.1039 12.002 3.10571L12.0011 3.10669Z" fill="#5D5E61"/>
</g>
<defs>
<clipPath id="clip0_8996_1747">
<rect width="24" height="24" fill="white" transform="translate(0 0.105469)"/>
</clipPath>
</defs>
</svg>
