<svg width="61" height="61" viewBox="0 0 61 61" fill="none" xmlns="http://www.w3.org/2000/svg">
<g clip-path="url(#clip0_8756_6889)">
<g clip-path="url(#clip1_8756_6889)">
<g filter="url(#filter0_d_8756_6889)">
<path d="M1.27585 30.6252C1.27585 14.2943 14.5145 1.05566 30.8454 1.05566C47.1762 1.05566 60.4156 14.2943 60.4156 30.6252C60.4156 46.9561 47.1769 60.1947 30.8454 60.1947C14.5138 60.1947 1.27585 46.9561 1.27585 30.6252Z" fill="url(#paint0_linear_8756_6889)"/>
<path d="M37.1467 32.7163C36.4679 32.3097 35.5836 31.856 34.7831 32.1838C34.169 32.435 33.7772 33.3958 33.3798 33.8868C33.1758 34.1387 32.9317 34.1781 32.618 34.0521C30.3135 33.1342 28.5472 31.5951 27.2754 29.4756C27.0602 29.1457 27.0988 28.8861 27.3584 28.5808C27.7425 28.1285 28.225 27.615 28.3291 27.0052C28.4333 26.3953 28.147 25.6827 27.8951 25.1404C27.5737 24.4468 27.2128 23.4577 26.5185 23.0652C25.8798 22.7044 25.0385 22.907 24.4694 23.3698C23.4874 24.1696 23.0133 25.4224 23.0281 26.6647C23.0323 27.0178 23.0752 27.3695 23.1582 27.7107C23.3566 28.5302 23.735 29.2948 24.1613 30.0222C24.4821 30.5709 24.8317 31.1027 25.2087 31.6147C26.4418 33.2896 27.9753 34.7443 29.7508 35.8318C30.6385 36.3749 31.5938 36.8518 32.5835 37.1789C33.6935 37.5454 34.6825 37.9274 35.8812 37.6994C37.1361 37.461 38.3728 36.6844 38.8708 35.4752C39.0185 35.1171 39.0924 34.7183 39.0094 34.3406C38.8391 33.559 37.7805 33.0934 37.1481 32.7156L37.1467 32.7163Z" fill="white"/>
<path d="M31.0078 13.9165C21.9067 13.9165 14.5024 21.3201 14.5024 30.4211C14.5024 33.2046 15.2164 35.9473 16.5726 38.3946L14.1767 47.3331L23.1617 44.9259C25.5766 46.2364 28.2749 46.9258 31.0078 46.9258C40.1081 46.9258 47.5124 39.5215 47.5124 30.4211C47.5124 21.3208 40.1081 13.9165 31.0078 13.9165ZM31.0078 43.8061C28.6147 43.8061 26.2519 43.1519 24.1746 41.9138L23.6091 41.5762L18.5901 42.9211L19.9273 37.9303L19.5798 37.3605C18.2995 35.2579 17.6221 32.8578 17.6221 30.4211C17.6221 23.0407 23.6266 17.0362 31.0071 17.0362C38.3875 17.0362 44.392 23.0407 44.392 30.4211C44.392 37.8016 38.3868 43.8061 31.0071 43.8061H31.0078Z" fill="white"/>
</g>
</g>
</g>
<defs>
<filter id="filter0_d_8756_6889" x="1.13516" y="0.914978" width="59.7025" height="59.7019" filterUnits="userSpaceOnUse" color-interpolation-filters="sRGB">
<feFlood flood-opacity="0" result="BackgroundImageFix"/>
<feColorMatrix in="SourceAlpha" type="matrix" values="0 0 0 0 0 0 0 0 0 0 0 0 0 0 0 0 0 0 127 0" result="hardAlpha"/>
<feOffset dx="0.140687" dy="0.140687"/>
<feGaussianBlur stdDeviation="0.140687"/>
<feColorMatrix type="matrix" values="0 0 0 0 0 0 0 0 0 0 0 0 0 0 0 0 0 0 0.2 0"/>
<feBlend mode="normal" in2="BackgroundImageFix" result="effect1_dropShadow_8756_6889"/>
<feBlend mode="normal" in="SourceGraphic" in2="effect1_dropShadow_8756_6889" result="shape"/>
</filter>
<linearGradient id="paint0_linear_8756_6889" x1="30.8453" y1="60.5984" x2="30.8453" y2="1.45873" gradientUnits="userSpaceOnUse">
<stop stop-color="#40C351"/>
<stop offset="1" stop-color="#40C351"/>
</linearGradient>
<clipPath id="clip0_8756_6889">
<rect width="60" height="60" fill="white" transform="translate(0.333313 0.105469)"/>
</clipPath>
<clipPath id="clip1_8756_6889">
<rect width="60" height="60" fill="white" transform="translate(0.987885 0.759766)"/>
</clipPath>
</defs>
</svg>
