<svg width="24" height="24" viewBox="0 0 24 24" fill="none" xmlns="http://www.w3.org/2000/svg">
<path d="M17.2929 5.29306C17.6834 4.90256 18.3164 4.90255 18.707 5.29306C19.0973 5.68359 19.0974 6.31664 18.707 6.70713L13.414 12.0001L18.707 17.2931L18.7753 17.3692C19.0955 17.762 19.0729 18.3411 18.707 18.7071C18.3409 19.0732 17.7618 19.0956 17.3691 18.7755L17.2929 18.7071L11.9999 13.4142L6.70696 18.7071C6.31647 19.0976 5.68343 19.0975 5.29289 18.7071C4.90237 18.3166 4.90237 17.6836 5.29289 17.2931L10.5859 12.0001L5.29289 6.70713L5.22453 6.63096C4.90418 6.23818 4.92678 5.65918 5.29289 5.29306C5.65902 4.92706 6.23805 4.90439 6.63078 5.22471L6.70696 5.29306L11.9999 10.586L17.2929 5.29306Z" fill="currentColor"/>
</svg>
