<svg width="65" height="65" viewBox="0 0 65 65" fill="none" xmlns="http://www.w3.org/2000/svg">
<g clip-path="url(#clip0_8756_6852)">
<path fill-rule="evenodd" clip-rule="evenodd" d="M47.4844 44.3449C47.4202 45.2241 47.4762 46.1459 47.4766 47.0298L47.4792 52.4699L47.474 53.8319C47.4753 54.1435 47.5246 54.4604 47.4479 54.7668C47.3806 54.8324 47.3664 54.8209 47.2708 54.8266L17.125 54.824C17.185 54.0582 17.1328 53.0169 17.1328 52.2303V46.7876L17.1406 45.1626C17.1403 44.987 17.1087 44.8083 17.1146 44.6339C17.1175 44.5457 17.1385 44.4807 17.1771 44.4022C17.2735 44.3375 17.3388 44.3464 17.4531 44.3397L47.4844 44.3449ZM42.6589 47.2902C42.1837 47.4494 41.9574 48.1254 41.6771 48.5089C41.4545 48.1659 41.1327 47.426 40.7031 47.3501C40.5473 47.3228 40.3704 47.3817 40.2474 47.4777C40.1462 47.5567 40.0861 47.6705 40.0729 47.798C40.024 48.2742 40.7495 49.1298 40.987 49.5584C40.9829 49.5688 40.9782 49.5794 40.974 49.5897C40.7563 50.1092 39.8663 50.9829 40.1172 51.561C40.1657 51.6716 40.2542 51.7261 40.3646 51.7615C40.5145 51.8097 40.6493 51.8187 40.8047 51.8006C41.2334 51.5345 41.3751 51.0382 41.6875 50.6704C41.9408 51.059 42.2616 51.7811 42.7422 51.897C42.8436 51.9213 42.9404 51.9111 43.0313 51.8579C43.1694 51.7767 43.3064 51.5474 43.3333 51.3918C43.3972 51.0197 42.574 49.9762 42.3776 49.6157C42.3811 49.6055 42.3842 49.5946 42.388 49.5845C42.5883 49.0467 43.531 48.1394 43.2917 47.5662C43.2423 47.4483 43.1285 47.3779 43.013 47.3371C42.8991 47.2967 42.7787 47.2868 42.6589 47.2902ZM23.8386 47.298C23.4032 47.478 23.143 48.1404 22.8802 48.5168C22.6765 48.16 22.3752 47.4694 21.9531 47.3657C21.7994 47.3283 21.5892 47.3756 21.4583 47.4621C21.3629 47.5257 21.3083 47.6262 21.2917 47.7381C21.2063 48.3131 21.962 49.0651 22.2057 49.5688L22.1849 49.6053C21.9239 50.1178 21.1385 50.9543 21.3255 51.5402C21.3551 51.6325 21.4103 51.6954 21.4948 51.7407C21.6442 51.8205 21.8905 51.8199 22.0521 51.7928C22.4017 51.5377 22.6858 51.0365 22.8828 50.6522C23.1145 50.9865 23.3607 51.5618 23.6953 51.7876C23.7872 51.8491 23.8963 51.8729 24.0026 51.897C24.193 51.8504 24.3576 51.8018 24.4688 51.6261C24.555 51.4891 24.5579 51.3225 24.5156 51.1704C24.3883 50.7123 23.8493 50.0433 23.5833 49.6131C23.8413 48.9839 24.4254 48.4767 24.5807 47.8084L24.4583 47.4907C24.2533 47.3262 24.1015 47.2719 23.8386 47.298ZM28.5365 47.2954C28.1241 47.4743 27.816 48.1276 27.6042 48.5141L27.5807 48.4803C27.3372 48.1435 27.0516 47.4179 26.6068 47.3501C26.4525 47.3269 26.2723 47.3849 26.1511 47.4803C26.0508 47.5594 25.9946 47.6716 25.9818 47.798C25.9336 48.2793 26.6715 49.1296 26.9063 49.5688C26.6753 50.0015 25.854 51.0212 25.9948 51.4673C26.0444 51.6243 26.1536 51.6932 26.2969 51.7589C26.4447 51.8269 26.6054 51.8322 26.7604 51.7824C27.1388 51.5621 27.3328 50.9933 27.6172 50.6652C27.8097 51.0235 28.1509 51.7331 28.5521 51.8605C28.7041 51.9086 28.885 51.8624 29.0182 51.7824C29.126 51.7178 29.1989 51.624 29.2266 51.5011C29.3422 50.9866 28.5243 50.0703 28.2708 49.5975C28.5257 49.1417 29.3658 48.0993 29.2162 47.6131C29.183 47.5057 29.112 47.428 29.013 47.3761C28.8638 47.2983 28.7011 47.2896 28.5365 47.2954ZM33.2474 47.2954C32.7432 47.4886 32.5547 48.3586 32.263 48.4516C31.9311 48.1403 31.8001 47.3484 31.2318 47.3475C31.0785 47.3474 30.894 47.4129 30.7891 47.5272C30.6976 47.6274 30.6724 47.7735 30.6823 47.9048C30.709 48.257 31.3746 49.22 31.6146 49.5636C31.3479 50.017 30.5718 50.9625 30.7057 51.4855C30.7333 51.5919 30.8005 51.6803 30.8984 51.7303C31.0578 51.8116 31.2373 51.8185 31.4115 51.8032C31.8073 51.5599 32.0475 51.0389 32.2813 50.6496C32.5229 51.0287 32.7556 51.431 33.0391 51.7798C33.2207 51.8544 33.4161 51.9216 33.6094 51.8449C33.7368 51.7942 33.8438 51.6775 33.8932 51.5506C33.9735 51.3442 33.9104 51.1338 33.8177 50.9438C33.5887 50.4746 33.2305 50.0551 32.974 49.5975C33.2262 49.1293 34.0683 48.0949 33.9063 47.5975C33.8715 47.4907 33.7983 47.416 33.6979 47.3683C33.5546 47.3005 33.4034 47.2855 33.2474 47.2954ZM37.9271 47.298C37.5107 47.468 37.2118 48.1358 36.987 48.5089C36.7617 48.1594 36.4334 47.4294 36.0026 47.3423C35.8622 47.3142 35.7275 47.3606 35.6146 47.4438C35.4868 47.5383 35.382 47.6639 35.3646 47.8266C35.3014 48.42 36.2632 49.0994 36.2396 49.6079C36.2122 50.1843 35.0773 50.7908 35.474 51.6339C35.6545 51.7474 35.8294 51.8509 36.0521 51.8032C36.0997 51.7929 36.147 51.7812 36.1927 51.7641C36.5224 51.5121 36.7692 50.9911 37 50.6444C37.1805 51.0069 37.5266 51.7018 37.9167 51.8449C38.1049 51.9137 38.2624 51.8552 38.4401 51.785C38.5634 51.6213 38.6523 51.4872 38.6224 51.2746C38.5496 50.7623 37.9393 50.0809 37.6719 49.6105C37.9212 49.014 38.4886 48.5075 38.6458 47.8813L38.6615 47.8214C38.6121 47.6384 38.5618 47.4699 38.388 47.3683C38.2504 47.2881 38.0812 47.2871 37.9271 47.298Z" fill="#717275"/>
<path d="M32.3386 9.35269C35.9496 9.3556 39.4106 10.7961 41.9583 13.3553C44.0132 15.4071 45.355 18.0644 45.7865 20.936C45.8973 21.676 45.9295 22.4081 45.9505 23.1548C49.5249 21.9357 53.2621 22.0522 56.6745 23.7303C59.9153 25.3263 62.3914 28.1427 63.5599 31.561C63.7801 32.2076 63.9654 32.8811 64.0755 33.5558C64.1463 33.9896 64.1556 34.4986 64.2917 34.9126V37.0402C64.2888 37.0503 64.2841 37.0614 64.2813 37.0714C64.1685 37.4805 64.1405 37.9349 64.0755 38.3553C64.0023 38.8285 63.8855 39.2964 63.7526 39.7563C62.7613 43.1543 60.4916 46.0382 57.4219 47.8006C55.7412 48.7712 53.87 49.3675 51.9375 49.548C50.8354 49.641 49.7168 49.6059 48.612 49.5923C48.6481 48.0414 48.6183 46.4824 48.6172 44.9308C48.6168 44.3634 48.5988 43.7894 48.6198 43.2225C45.839 43.1883 43.0545 43.2121 40.2734 43.2121H19.0443L17.0417 43.2147C16.6971 43.2159 16.3436 43.2392 16 43.2173C16.0196 44.7043 16.0011 46.1936 16 47.6808C15.9996 48.3166 15.9637 48.9721 16 49.6053C14.8436 49.6014 13.6726 49.6445 12.5208 49.5272C9.40294 49.1909 6.49502 47.7926 4.28647 45.5662C2.52188 43.7914 1.28155 41.5631 0.700531 39.1287C0.606866 38.7341 0.434858 37.3695 0.333344 37.1626V34.7511C0.336387 34.7432 0.340853 34.7358 0.34376 34.7277C0.484735 34.3374 0.496269 33.8622 0.565114 33.4516C0.65294 32.9289 0.789844 32.4055 0.947927 31.8996C2.07254 28.2997 4.63601 25.3253 8.03126 23.6834C11.3225 22.1029 15.1082 21.8985 18.5495 23.1183C18.5943 23.1338 18.6401 23.1518 18.6849 23.1678C18.6888 19.4089 20.0308 15.9778 22.7031 13.3084C25.2606 10.7601 28.7283 9.33574 32.3386 9.35269Z" fill="#717275"/>
</g>
<defs>
<clipPath id="clip0_8756_6852">
<rect width="64" height="64" fill="white" transform="translate(0.333344 0.105225)"/>
</clipPath>
</defs>
</svg>
