<svg width="64" height="65" viewBox="0 0 64 65" fill="none" xmlns="http://www.w3.org/2000/svg">
<path fill-rule="evenodd" clip-rule="evenodd" d="M7.25984 2.55387H57.3796C58.3242 2.55379 59.294 2.51001 60.2364 2.56429C60.6179 2.58634 60.9946 2.70722 61.2494 3.00699C61.4301 3.2198 61.5013 3.46296 61.5203 3.73616C61.5519 4.19529 61.5364 4.6637 61.5359 5.12418L61.5333 7.46533V24.6658C61.5333 25.1133 61.5535 25.571 61.5229 26.0174C61.4994 26.3609 61.3731 26.6515 61.1062 26.8768C60.8804 27.0671 60.6311 27.1551 60.3406 27.1893C59.8362 27.2486 59.2977 27.2093 58.7885 27.2075L55.963 27.2049L53.1244 27.2075C52.6541 27.2089 52.1671 27.2504 51.6999 27.2023C51.631 30.4698 51.7457 33.7443 51.6869 37.0122C53.7109 37.0661 55.7453 37.0292 57.7703 37.0278C58.5848 37.0272 59.6594 36.9575 60.4473 37.0513C60.6612 37.0768 60.8538 37.1484 61.0307 37.2726C61.3128 37.4709 61.4683 37.7609 61.5177 38.0981C61.561 38.3946 61.5376 38.7145 61.5359 39.0148L61.5333 40.4575L61.5359 58.6632C61.5363 59.2417 61.5565 59.8283 61.5255 60.4054C61.5105 60.6836 61.4508 60.9382 61.2781 61.1632C61.0222 61.4963 60.666 61.602 60.2703 61.6606L60.0906 61.6632C58.7292 61.6814 57.3637 61.6658 56.002 61.6658H6.02807C5.25957 61.666 4.4688 61.703 3.70255 61.6528C3.37806 61.6316 3.01647 61.4926 2.78588 61.2544C2.58425 61.046 2.50914 60.7961 2.4838 60.5148C2.40935 59.6885 2.45992 58.822 2.46036 57.9914L2.45776 38.6815C2.45968 38.1762 2.47334 37.7165 2.86661 37.3455C3.02374 37.1973 3.25161 37.085 3.46557 37.0539C3.86242 36.9962 4.29163 37.022 4.69213 37.0226L6.6713 37.0252H10.239C10.9266 37.0251 11.6197 37.0088 12.3067 37.0356C12.2605 33.7622 12.307 30.4817 12.3041 27.2075C10.4233 27.2445 8.53469 27.205 6.65307 27.2049L4.80411 27.2101C4.41074 27.2122 4.00497 27.2364 3.61401 27.1867C3.3549 27.1535 3.12067 27.0642 2.91349 26.9028C2.64746 26.6952 2.52875 26.4356 2.4864 26.106C2.43581 25.7105 2.45763 25.2957 2.46036 24.8976L2.46297 23.2362L2.46036 5.36897C2.45974 4.85026 2.43548 4.31836 2.47078 3.80127C2.49081 3.50827 2.56215 3.2308 2.75203 2.99918C3.02364 2.6683 3.3976 2.59536 3.7989 2.55647C4.94536 2.51229 6.11184 2.55385 7.25984 2.55387ZM39.2624 46.8872C37.9008 46.9538 36.853 48.1175 36.9317 49.4783C37.0112 50.8399 38.1883 51.8755 39.5489 51.783C40.8906 51.6914 41.9081 50.537 41.8302 49.1945C41.7517 47.8513 40.6063 46.8218 39.2624 46.8872ZM51.5776 46.8872C50.6956 46.9278 49.9018 47.4385 49.502 48.2257C49.1023 49.0132 49.1575 49.9558 49.6453 50.6919C50.1331 51.428 50.9804 51.8444 51.8614 51.783C53.2009 51.6892 54.2149 50.5353 54.1374 49.1945C54.0594 47.854 52.9191 46.8257 51.5776 46.8872ZM14.7781 27.1867C14.7411 28.241 14.7649 29.3031 14.7651 30.3586V37.0148C17.6668 37.062 20.5737 37.0277 23.476 37.0278L46.3015 37.0252L48.252 37.0278C48.5565 37.0281 48.8966 37.0596 49.1947 37.0122L49.2338 36.9705C49.2429 33.7201 49.2794 30.4601 49.2338 27.2101C46.4476 27.2424 43.6559 27.2077 40.8692 27.2075L17.1166 27.2049C16.5686 27.2046 15.2463 27.2873 14.7781 27.1867ZM39.1192 12.4393C37.7706 12.5846 36.7963 13.7966 36.9447 15.145C37.0934 16.4932 38.308 17.4657 39.6557 17.3143C40.9987 17.1628 41.9674 15.9519 41.8197 14.6086C41.6719 13.2649 40.4632 12.2948 39.1192 12.4393ZM51.4291 12.4367C50.0804 12.5808 49.1046 13.794 49.252 15.1424C49.3996 16.4907 50.615 17.4627 51.963 17.3117C53.3058 17.1611 54.2739 15.9518 54.127 14.6086C53.9799 13.2653 52.7728 12.2935 51.4291 12.4367Z" fill="#717275"/>
</svg>
