<svg width="65" height="65" viewBox="0 0 65 65" fill="none" xmlns="http://www.w3.org/2000/svg">
<path fill-rule="evenodd" clip-rule="evenodd" d="M5.9918 42.7571C6.35245 42.7865 7.01064 43.0853 7.39805 43.1998C8.2232 43.4401 9.05506 43.6567 9.89284 43.8482C12.5276 44.4501 15.2377 44.7868 17.9267 45.0305C21.6366 45.3464 25.3601 45.4737 29.0829 45.4133C30.2294 45.3995 31.3755 45.3624 32.5204 45.3014C33.0399 45.2772 33.7773 45.1888 34.2757 45.2284C34.3589 45.2351 34.4215 45.2532 34.4762 45.3196C34.6371 45.5171 34.8965 46.3932 35.0048 46.6712C36.1444 49.5959 37.8344 52.3997 39.8043 54.8378C40.5027 55.7022 41.2522 56.5158 42.0074 57.33C41.6212 57.356 41.2117 57.4854 40.8329 57.5722C37.8048 58.1999 34.756 58.4703 31.6767 58.6764C30.6766 58.7433 29.6661 58.7459 28.6637 58.7649C23.1414 58.869 16.6798 58.4589 11.346 56.968C9.85317 56.5507 7.97698 55.9341 6.80169 54.8951C6.51411 54.641 6.19807 54.3061 6.09336 53.929C5.9072 53.2556 5.99453 51.7669 5.9944 51.0175V45.4446C5.99466 44.5593 6.04929 43.6392 5.9918 42.7571ZM12.4137 48.1399C11.6983 48.2773 11.2273 48.9683 11.3616 49.6842C11.4959 50.3999 12.1844 50.8723 12.9007 50.7415C13.6212 50.6094 14.0976 49.9171 13.9632 49.1972C13.8281 48.477 13.1332 48.0021 12.4137 48.1399Z" fill="#717275"/>
<path d="M48.6038 29.4837C48.7299 29.4895 48.8315 29.5288 48.9449 29.58C50.1969 30.1462 51.4232 30.8167 52.6533 31.4316L59.3225 34.7727C59.325 35.2415 59.315 35.7107 59.2939 36.179C58.9571 42.474 56.4048 48.4467 52.0882 53.0409C51.3941 53.7757 50.6593 54.4715 49.8876 55.1243C49.5065 55.4481 49.0974 55.7432 48.7262 56.0774C48.3602 56.0658 46.2603 54.079 45.8564 53.679C40.8247 48.676 37.9971 41.8709 38.0048 34.7753C38.5843 34.4407 39.2053 34.1576 39.8043 33.8587L42.9918 32.2701L46.4788 30.5253C47.1822 30.1735 47.8836 29.7996 48.6038 29.4837Z" fill="#717275"/>
<path fill-rule="evenodd" clip-rule="evenodd" d="M5.98919 26.7571C6.33467 26.7906 6.73787 26.9821 7.07253 27.0904C7.59903 27.2614 8.13285 27.4156 8.66888 27.554C10.6267 28.0429 12.6121 28.4139 14.6142 28.6659C20.1975 29.347 25.8274 29.5773 31.4475 29.3508C32.7825 29.299 34.1178 29.2241 35.4501 29.1269C36.1943 29.0733 36.9419 28.9887 37.6871 28.9602C36.5314 29.5032 35.0059 30.1955 34.1272 31.1061C33.018 32.2563 32.6505 33.6688 32.6741 35.2284C32.7047 36.821 32.9404 38.3623 33.1272 39.9394C32.7066 39.9715 32.283 39.9727 31.8616 39.9941C29.9803 40.1022 28.0947 40.1401 26.2105 40.1061C22.4581 40.0909 18.7098 39.8281 14.9918 39.3196C12.9231 39.026 10.8483 38.6532 8.84075 38.067C8.17704 37.8732 6.58967 37.3866 6.10898 36.955C6.0081 36.8642 6.00609 36.6835 5.997 36.5566C5.94665 35.8586 5.99181 35.1228 5.9918 34.4212V29.3066C5.99204 28.4657 6.04363 27.5946 5.98919 26.7571ZM12.4111 32.1399C11.696 32.2775 11.2273 32.9685 11.3616 33.6842C11.4961 34.3999 12.1843 34.8726 12.9007 34.7415C13.6207 34.6089 14.095 33.9168 13.9605 33.1972C13.8254 32.4769 13.1308 32.0018 12.4111 32.1399Z" fill="#717275"/>
<path fill-rule="evenodd" clip-rule="evenodd" d="M26.9658 5.43418C27.8783 5.40371 28.8085 5.45007 29.721 5.48886C34.8036 5.70498 42.9431 6.84472 46.885 10.2363C47.8377 11.0561 48.5663 12.0345 48.6585 13.3196C48.6891 13.7498 48.6699 14.1901 48.6689 14.6217L48.6663 16.7962L48.6715 19.2519C48.6722 19.6841 48.6924 20.1282 48.6663 20.5592C48.6587 20.6843 48.654 20.839 48.5621 20.9342C48.2241 21.2824 47.1473 21.6358 46.6585 21.804C44.8299 22.433 42.901 22.8202 40.9944 23.1295C36.6071 23.8412 32.181 24.0702 27.7418 24.1113C23.5285 24.1535 19.3168 23.8971 15.1402 23.3404C12.8096 23.0177 10.4397 22.5997 8.20013 21.8691C7.69294 21.7036 6.48549 21.2946 6.13503 20.9706C5.98582 20.8317 5.99454 20.5822 5.9918 20.3899C5.97262 19.0443 5.99665 17.6942 5.997 16.3482C5.9972 15.3473 5.88903 13.4302 6.13763 12.5514C6.34101 11.8335 6.78791 11.2041 7.3043 10.6764C10.3992 7.51395 17.242 6.19297 21.5074 5.73626C23.321 5.54842 25.1425 5.44867 26.9658 5.43418ZM12.4137 16.1399C11.6986 16.2775 11.2299 16.9683 11.3642 17.6842C11.4987 18.3998 12.1869 18.8727 12.9033 18.7415C13.6233 18.6089 14.0976 17.9168 13.9632 17.1972C13.828 16.4768 13.1334 16.0017 12.4137 16.1399Z" fill="#717275"/>
</svg>
