<svg width="56" height="56" viewBox="0 0 56 56" fill="none" xmlns="http://www.w3.org/2000/svg">
<rect width="56" height="56" rx="28" fill="#1D4AF0"/>
<path fill-rule="evenodd" clip-rule="evenodd" d="M34 17C36.2091 17 38 18.7909 38 21C38 23.2091 36.2091 25 34 25C32.8882 25 31.8831 24.5457 31.1582 23.8135L25.8486 26.9121C25.9462 27.2581 26 27.6228 26 28C26 28.3765 25.9468 28.7405 25.8496 29.0859L31.1611 32.1816C31.8858 31.4517 32.8902 31 34 31C36.2091 31 38 32.7909 38 35C38 37.2091 36.2091 39 34 39C31.7909 39 30 37.2091 30 35C30 34.6214 30.0531 34.2553 30.1514 33.9082L24.8408 30.8135C24.1159 31.5454 23.1115 32 22 32C19.7909 32 18 30.2091 18 28C18 25.7909 19.7909 24 22 24C23.111 24 24.116 24.4532 24.8408 25.1846L30.1504 22.0869C30.053 21.7412 30 21.3768 30 21C30 18.7909 31.7909 17 34 17ZM34 33C33.3054 33 32.6935 33.3541 32.335 33.8916C32.3199 33.9259 32.3035 33.96 32.2842 33.9932C32.2648 34.0264 32.2432 34.0577 32.2207 34.0879C32.0802 34.3615 32 34.6713 32 35C32 36.1046 32.8954 37 34 37C35.1046 37 36 36.1046 36 35C36 33.8954 35.1046 33 34 33ZM22 26C20.8954 26 20 26.8954 20 28C20 29.1046 20.8954 30 22 30C22.7327 30 23.3704 29.6043 23.7188 29.0166C23.7208 29.0129 23.7235 29.0095 23.7256 29.0059C23.73 28.9983 23.7347 28.9908 23.7393 28.9834C23.904 28.6927 24 28.3579 24 28C24 26.8954 23.1046 26 22 26ZM34 19C32.8954 19 32 19.8954 32 21C32 22.1046 32.8954 23 34 23C35.1046 23 36 22.1046 36 21C36 19.8954 35.1046 19 34 19Z" fill="white"/>
</svg>
