<svg width="56" height="56" viewBox="0 0 56 56" fill="none" xmlns="http://www.w3.org/2000/svg">
<rect width="56" height="56" rx="28" fill="#1D4AF0"/>
<g clip-path="url(#clip0_8756_6774)">
<path fill-rule="evenodd" clip-rule="evenodd" d="M21.8691 19.5594C23.4479 18.9749 25.1596 18.845 26.8085 19.1844C28.4574 19.5238 29.9786 20.3189 31.1982 21.4793C32.2277 22.4589 33.0061 23.6669 33.4775 24.9998H33.9999C35.5912 24.9998 37.1179 25.6325 38.2431 26.7576C39.368 27.8827 39.9999 29.4088 39.9999 30.9998C39.9999 32.5909 39.368 34.1168 38.2431 35.242C37.1179 36.3672 35.5912 36.9998 33.9999 36.9998H24.9999C23.3169 37.0009 21.6671 36.5298 20.2382 35.6404C18.809 34.7507 17.657 33.4778 16.915 31.9666C16.1731 30.4555 15.8701 28.7663 16.04 27.0916C16.21 25.4167 16.8464 23.8223 17.8769 22.491C18.9073 21.1598 20.2904 20.1439 21.8691 19.5594ZM26.4052 21.1433C25.1228 20.8794 23.7913 20.9808 22.5634 21.4353C21.3356 21.89 20.2603 22.6803 19.4589 23.7156C18.6576 24.751 18.1625 25.9902 18.0302 27.2928C17.898 28.5954 18.1339 29.9094 18.7109 31.0847C19.288 32.2601 20.1833 33.2501 21.2949 33.9422C22.4064 34.6341 23.6897 35.0007 24.999 34.9998H33.9999C35.0608 34.9998 36.0779 34.578 36.8281 33.8279C37.5782 33.0778 37.9999 32.0606 37.9999 30.9998C37.9999 29.939 37.5782 28.9218 36.8281 28.1717C36.0779 27.4217 35.0607 26.9998 33.9999 26.9998H32.7402C32.2842 26.9997 31.8854 26.6913 31.7714 26.2498C31.444 24.982 30.7678 23.8311 29.8193 22.9285C28.8707 22.026 27.6877 21.4073 26.4052 21.1433Z" fill="white"/>
</g>
<defs>
<clipPath id="clip0_8756_6774">
<rect width="24" height="24" fill="white" transform="translate(16 16)"/>
</clipPath>
</defs>
</svg>
