<svg width="56" height="56" viewBox="0 0 56 56" fill="none" xmlns="http://www.w3.org/2000/svg">
<rect width="56" height="56" rx="28" fill="#1D4AF0"/>
<path d="M23 29C23.5523 29 24 29.4477 24 30C24 30.5523 23.5523 31 23 31H21V37C21 37.5523 20.5523 38 20 38C19.4477 38 19 37.5523 19 37V31H17C16.4477 31 16 30.5523 16 30C16 29.4477 16.4477 29 17 29H23Z" fill="white"/>
<path d="M28 27C28.5523 27 29 27.4477 29 28V37C29 37.5523 28.5523 38 28 38C27.4477 38 27 37.5523 27 37V28C27 27.4477 27.4477 27 28 27Z" fill="white"/>
<path d="M39 31C39.5523 31 40 31.4477 40 32C40 32.5523 39.5523 33 39 33H37V37C37 37.5523 36.5523 38 36 38C35.4477 38 35 37.5523 35 37V33H33C32.4477 33 32 32.5523 32 32C32 31.4477 32.4477 31 33 31H39Z" fill="white"/>
<path d="M36 18C36.5523 18 37 18.4477 37 19V28C37 28.5523 36.5523 29 36 29C35.4477 29 35 28.5523 35 28V19C35 18.4477 35.4477 18 36 18Z" fill="white"/>
<path d="M20 18C20.5523 18 21 18.4477 21 19V26C21 26.5523 20.5523 27 20 27C19.4477 27 19 26.5523 19 26V19C19 18.4477 19.4477 18 20 18Z" fill="white"/>
<path d="M28 18C28.5523 18 29 18.4477 29 19V23H31C31.5523 23 32 23.4477 32 24C32 24.5523 31.5523 25 31 25H25C24.4477 25 24 24.5523 24 24C24 23.4477 24.4477 23 25 23H27V19C27 18.4477 27.4477 18 28 18Z" fill="white"/>
</svg>
