<svg width="56" height="56" viewBox="0 0 56 56" fill="none" xmlns="http://www.w3.org/2000/svg">
<rect width="56" height="56" rx="28" fill="#1D4AF0"/>
<g clip-path="url(#clip0_8756_6792)">
<path fill-rule="evenodd" clip-rule="evenodd" d="M31 24C31.5523 24 32 24.4477 32 25V31C32 31.5523 31.5523 32 31 32H25C24.4477 32 24 31.5523 24 31V25L24.0049 24.8975C24.0562 24.3933 24.4823 24 25 24H31ZM26 30H30V26H26V30Z" fill="white"/>
<path fill-rule="evenodd" clip-rule="evenodd" d="M31 16C31.5523 16 32 16.4477 32 17V19H34C35.6569 19 37 20.3431 37 22V24H39C39.5523 24 40 24.4477 40 25C40 25.5523 39.5523 26 39 26H37V29H39C39.5523 29 40 29.4477 40 30C40 30.5523 39.5523 31 39 31H37V34C37 35.6569 35.6569 37 34 37H32V39C32 39.5523 31.5523 40 31 40C30.4477 40 30 39.5523 30 39V37H26V39C26 39.5523 25.5523 40 25 40C24.4477 40 24 39.5523 24 39V37H22C20.3431 37 19 35.6569 19 34V31H17C16.4477 31 16 30.5523 16 30C16 29.4477 16.4477 29 17 29H19V26H17C16.4477 26 16 25.5523 16 25C16 24.4477 16.4477 24 17 24H19V22C19 20.3431 20.3431 19 22 19H24V17C24 16.4477 24.4477 16 25 16C25.5523 16 26 16.4477 26 17V19H30V17C30 16.4477 30.4477 16 31 16ZM22 21C21.4477 21 21 21.4477 21 22V34C21 34.5523 21.4477 35 22 35H34C34.5523 35 35 34.5523 35 34V22C35 21.4477 34.5523 21 34 21H22Z" fill="white"/>
</g>
<defs>
<clipPath id="clip0_8756_6792">
<rect width="24" height="24" fill="white" transform="translate(16 16)"/>
</clipPath>
</defs>
</svg>
