<svg width="600" height="143" viewBox="0 0 600 143" fill="none" xmlns="http://www.w3.org/2000/svg">
<g clip-path="url(#clip0_8756_6823)">
<path d="M201.561 78.7789C201.561 81.8413 201.022 84.6513 199.943 87.2227C198.865 89.794 197.379 92.0038 195.492 93.859C193.598 95.7142 191.352 97.167 188.746 98.2173C186.14 99.2677 183.313 99.7929 180.265 99.7929H155.347C154.683 99.7929 154.068 99.6769 153.501 99.445C152.934 99.2131 152.444 98.8926 152.029 98.4833C151.614 98.0741 151.289 97.5898 151.054 97.0306C150.819 96.4713 150.702 95.8643 150.702 95.2095V54.1569C150.702 53.5294 150.819 52.9292 151.054 52.3699C151.289 51.8106 151.614 51.3195 152.029 50.8966C152.444 50.4738 152.934 50.1464 153.501 49.9145C154.068 49.6826 154.683 49.5667 155.347 49.5667H180.265C183.32 49.5667 186.147 50.0918 188.746 51.1422C191.352 52.1925 193.598 53.6453 195.492 55.5005C197.386 57.3557 198.872 59.5723 199.943 62.1573C201.022 64.7355 201.561 67.5455 201.561 70.5806V78.7789ZM192.333 70.5806C192.333 68.8073 192.043 67.184 191.462 65.7108C190.882 64.2376 190.059 62.9826 188.995 61.9459C187.93 60.9092 186.658 60.1043 185.179 59.5314C183.7 58.9585 182.062 58.672 180.265 58.672H159.922V90.6875H180.265C182.062 90.6875 183.7 90.401 185.179 89.8281C186.658 89.2552 187.93 88.4504 188.995 87.4136C190.059 86.3769 190.882 85.1288 191.462 83.6692C192.043 82.2096 192.333 80.5795 192.333 78.7857V70.5875V70.5806Z" fill="#030303"/>
<path d="M263.466 99.7929H254.239V87.4614H221.793V99.7929H212.566V74.6798C212.566 71.0171 213.202 67.641 214.48 64.5581C215.759 61.4753 217.535 58.8289 219.803 56.6054C222.077 54.3887 224.759 52.6563 227.862 51.4218C230.959 50.1873 234.346 49.5667 238.016 49.5667H258.814C259.45 49.5667 260.058 49.6826 260.625 49.9145C261.192 50.1464 261.69 50.4738 262.118 50.8966C262.547 51.3195 262.879 51.8106 263.114 52.3699C263.349 52.9292 263.466 53.5225 263.466 54.1569V99.7929ZM221.793 78.356H254.239V58.672H238.016C237.733 58.672 237.131 58.713 236.226 58.7948C235.313 58.8766 234.263 59.0813 233.067 59.4086C231.871 59.736 230.613 60.2407 229.286 60.916C227.959 61.5912 226.742 62.5256 225.629 63.7192C224.517 64.9128 223.597 66.3997 222.878 68.1866C222.16 69.9736 221.793 72.1425 221.793 74.6866V78.3628V78.356Z" fill="#030303"/>
<path d="M323.095 58.672H302.753V99.7929H293.525V58.672H273.149V49.5667H323.095V58.672Z" fill="#030303"/>
<path d="M382.735 99.7929H373.508V87.4614H341.062V99.7929H331.835V74.6798C331.835 71.0171 332.471 67.641 333.749 64.5581C335.028 61.4753 336.804 58.8289 339.072 56.6054C341.346 54.3887 344.028 52.6563 347.131 51.4218C350.228 50.1873 353.615 49.5667 357.285 49.5667H378.083C378.719 49.5667 379.328 49.6826 379.894 49.9145C380.461 50.1464 380.959 50.4738 381.387 50.8966C381.816 51.3195 382.148 51.8106 382.383 52.3699C382.618 52.9292 382.735 53.5225 382.735 54.1569V99.7929ZM341.062 78.356H373.508V58.672H357.285C357.002 58.672 356.4 58.713 355.495 58.7948C354.582 58.8766 353.532 59.0813 352.336 59.4086C351.14 59.736 349.882 60.2407 348.555 60.916C347.228 61.5912 346.011 62.5256 344.898 63.7192C343.786 64.9128 342.866 66.3997 342.147 68.1866C341.429 69.9736 341.062 72.1425 341.062 74.6866V78.3628V78.356Z" fill="#030303"/>
<path d="M461.361 49.5666L452.839 96.6418C452.652 97.5762 452.223 98.381 451.56 99.0562C450.896 99.7315 450.095 100.168 449.148 100.352C448.18 100.516 447.261 100.414 446.397 100.038C445.533 99.6633 444.855 99.0835 444.358 98.2855L427.464 70.8944L410.53 98.2855C410.129 98.9607 409.576 99.4859 408.878 99.861C408.18 100.236 407.426 100.42 406.625 100.42C405.512 100.42 404.53 100.072 403.68 99.37C402.83 98.6675 402.304 97.7603 402.118 96.6349L393.526 49.5598H402.899L409.002 82.7279L423.559 59.8179C423.96 59.1426 424.513 58.6174 425.211 58.2423C425.909 57.8672 426.663 57.683 427.464 57.683C428.266 57.683 429.013 57.8672 429.697 58.2423C430.381 58.6174 430.948 59.1426 431.397 59.8179L445.878 82.7279L451.982 49.5598H461.354L461.361 49.5666Z" fill="#030303"/>
<path d="M522.089 99.7929H512.861V87.4614H480.416V99.7929H471.189V74.6798C471.189 71.0171 471.824 67.641 473.103 64.5581C474.382 61.4753 476.158 58.8289 478.425 56.6054C480.7 54.3887 483.381 52.6563 486.485 51.4218C489.582 50.1873 492.968 49.5667 496.639 49.5667H517.437C518.073 49.5667 518.681 49.6826 519.248 49.9145C519.815 50.1464 520.313 50.4738 520.741 50.8966C521.17 51.3195 521.501 51.8106 521.736 52.3699C521.972 52.9292 522.089 53.5225 522.089 54.1569V99.7929ZM480.416 78.356H512.861V58.672H496.639C496.355 58.672 495.754 58.713 494.849 58.7948C493.936 58.8766 492.886 59.0813 491.69 59.4086C490.494 59.736 489.236 60.2407 487.909 60.916C486.582 61.5912 485.365 62.5256 484.252 63.7192C483.139 64.9128 482.22 66.3997 481.501 68.1866C480.782 69.9736 480.416 72.1425 480.416 74.6866V78.3628V78.356Z" fill="#030303"/>
<path d="M584.209 66.3792C584.209 68.4595 583.939 70.3146 583.407 71.9516C582.875 73.5885 582.17 75.0276 581.292 76.2758C580.414 77.5239 579.391 78.5947 578.223 79.4814C577.055 80.3681 575.838 81.0979 574.587 81.6708C573.336 82.2437 572.064 82.6598 570.772 82.9121C569.479 83.1713 568.269 83.2941 567.136 83.2941H563.41V99.7929H554.114V83.2941H550.423C549.289 83.2941 548.072 83.1645 546.787 82.9121C545.494 82.6529 544.222 82.2437 542.951 81.6708C541.686 81.0979 540.469 80.3681 539.315 79.4814C538.154 78.5947 537.131 77.5239 536.246 76.2758C535.361 75.0276 534.649 73.5817 534.117 71.9311C533.585 70.2873 533.315 68.4322 533.315 66.3792V49.5667H542.543V66.3792C542.543 67.5728 542.729 68.6368 543.11 69.5848C543.49 70.5329 544.022 71.3445 544.706 72.0198C545.391 72.695 546.227 73.2202 547.208 73.5817C548.19 73.9431 549.282 74.1273 550.492 74.1273H567.143C568.021 73.9841 568.919 73.8067 569.839 73.5817C570.765 73.3566 571.601 72.9815 572.361 72.4426C573.122 71.9038 573.744 71.1604 574.242 70.1987C574.739 69.2438 574.988 67.9684 574.988 66.3792V49.5667H584.216V66.3792H584.209Z" fill="#030303"/>
<path d="M94.6392 27.6316H17.148C16.4015 27.6316 15.7932 28.2318 15.7932 28.9684V95.7275C15.7932 96.4641 16.4015 97.0644 17.148 97.0644H33.4536C34.2001 97.0644 34.8084 96.4641 34.8084 95.7275V49.4027C34.8084 47.7384 36.1769 46.3948 37.8566 46.3948H48.4113C50.0979 46.3948 51.4595 47.7453 51.4595 49.4027V78.5671L61.8 63.6507C62.3668 62.8322 63.3068 62.3412 64.316 62.3412H72.7694C73.7717 62.3412 74.7117 62.8254 75.2785 63.6439L85.7019 78.5808V49.4027C85.7019 47.7384 87.0636 46.3948 88.7502 46.3948H99.3049C100.991 46.3948 102.353 47.7384 102.353 49.4027V100.597C102.353 102.262 100.991 103.605 99.3049 103.605H87.0636C86.0614 103.605 85.1213 103.121 84.5545 102.303L68.5393 79.331L52.524 102.303C51.9572 103.121 51.0172 103.605 50.0149 103.605H17.148C16.4015 103.605 15.7932 104.205 15.7932 104.942V121.032C15.7932 121.768 16.4015 122.368 17.148 122.368H94.6392C109.397 122.368 121.368 110.562 121.368 95.9935V54.0065C121.368 39.4379 109.403 27.6316 94.6392 27.6316Z" fill="url(#paint0_linear_8756_6823)"/>
</g>
<defs>
<linearGradient id="paint0_linear_8756_6823" x1="15.7932" y1="75" x2="121.368" y2="75" gradientUnits="userSpaceOnUse">
<stop stop-color="#003BFF"/>
<stop offset="1" stop-color="#0000A4"/>
</linearGradient>
<clipPath id="clip0_8756_6823">
<rect width="568.421" height="94.7368" fill="white" transform="translate(15.7895 27.6316)"/>
</clipPath>
</defs>
</svg>
