<svg width="44" height="45" viewBox="0 0 44 45" fill="none" xmlns="http://www.w3.org/2000/svg">
<g clip-path="url(#clip0_8996_1545)">
<path d="M22 44.1055C34.1503 44.1055 44 34.2557 44 22.1055C44 9.9552 34.1503 0.105469 22 0.105469C9.84974 0.105469 0 9.9552 0 22.1055C0 34.2557 9.84974 44.1055 22 44.1055Z" fill="#EE2F53"/>
<path d="M22.8634 37.5053C21.9272 37.5222 20.9978 37.3424 20.1354 36.9773C20.0474 36.9773 18.0821 36.024 15.8821 34.6893C13.6821 33.3547 11.9368 32.0347 11.8634 31.976C11.2184 31.4436 10.6765 30.7973 10.2648 30.0693L11.5261 29.3213C11.855 29.882 12.2823 30.3788 12.7874 30.788C12.7874 30.788 14.5328 32.1227 16.6741 33.4133C18.8154 34.704 20.7661 35.6133 20.7954 35.628C22.1502 36.1487 23.65 36.1487 25.0048 35.628C25.0048 35.628 26.9848 34.704 29.1261 33.4133C31.2674 32.1227 32.9981 30.8027 33.0128 30.788C34.1531 29.7861 34.9057 28.4158 35.1394 26.916C35.1394 26.916 35.3741 24.6573 35.3741 22.076C35.3741 19.4947 35.1541 17.2507 35.1394 17.236C34.9045 15.7365 34.1521 14.3667 33.0128 13.364C33.0128 13.364 31.2674 12.0293 29.1261 10.7387C26.9848 9.44799 24.9314 8.56799 24.9314 8.56799C23.5766 8.04729 22.0769 8.04729 20.7221 8.56799C20.7221 8.56799 18.7421 9.49199 16.6154 10.7827C14.4888 12.0733 12.7728 13.3787 12.7581 13.3933C12.2534 13.8029 11.8262 14.2997 11.4968 14.86L10.2648 14.1413C10.6847 13.4104 11.2367 12.7639 11.8928 12.2347C11.8928 12.2347 13.6968 10.856 15.9114 9.52132C18.1261 8.18665 20.0914 7.27732 20.1648 7.23332C21.9114 6.53551 23.8594 6.53551 25.6061 7.23332C25.6941 7.23332 27.6448 8.18665 29.8594 9.52132C32.0741 10.856 33.7314 12.176 33.8634 12.2347C35.3246 13.4822 36.2835 15.2176 36.5621 17.1187C36.5621 17.2067 36.7968 19.4507 36.7968 22.1053C36.7968 24.76 36.5768 27.004 36.5621 27.092C36.2835 28.993 35.3246 30.7284 33.8634 31.976C33.8634 31.976 32.0594 33.3547 29.8448 34.6893C27.6301 36.024 25.6648 36.9333 25.5914 36.9773C24.7291 37.3424 23.7997 37.5222 22.8634 37.5053Z" fill="white"/>
<path d="M5.86523 17.7056H11.7319V19.1722H7.3319V26.5056H5.86523V17.7056Z" fill="white"/>
<path d="M17.5986 19.1722C18.1787 19.1722 18.7459 19.3443 19.2282 19.6666C19.7106 19.9889 20.0866 20.447 20.3086 20.983C20.5306 21.519 20.5887 22.1088 20.4755 22.6778C20.3624 23.2468 20.083 23.7695 19.6727 24.1797C19.2625 24.59 18.7398 24.8694 18.1708 24.9825C17.6018 25.0957 17.012 25.0376 16.476 24.8156C15.94 24.5936 15.4819 24.2176 15.1596 23.7352C14.8373 23.2529 14.6652 22.6857 14.6652 22.1056C14.6652 21.3276 14.9743 20.5815 15.5244 20.0314C16.0745 19.4813 16.8206 19.1722 17.5986 19.1722ZM17.5986 17.7056C16.7283 17.7056 15.8776 17.9636 15.1541 18.4471C14.4305 18.9306 13.8665 19.6178 13.5335 20.4218C13.2005 21.2258 13.1133 22.1104 13.2831 22.964C13.4529 23.8175 13.8719 24.6015 14.4873 25.2168C15.1027 25.8322 15.8867 26.2512 16.7402 26.421C17.5937 26.5908 18.4784 26.5037 19.2824 26.1706C20.0864 25.8376 20.7736 25.2737 21.257 24.5501C21.7405 23.8265 21.9986 22.9758 21.9986 22.1056C21.9986 20.9386 21.535 19.8195 20.7098 18.9943C19.8847 18.1691 18.7655 17.7056 17.5986 17.7056Z" fill="white"/>
<path d="M27.8654 26.5056C27.1676 26.504 26.4801 26.3365 25.8599 26.0168C25.2396 25.6972 24.7042 25.2347 24.2979 24.6673C23.8916 24.1 23.6261 23.4442 23.5233 22.754C23.4205 22.0638 23.4833 21.3591 23.7065 20.6979C23.9297 20.0368 24.307 19.4383 24.8072 18.9517C25.3074 18.4651 25.9161 18.1045 26.5831 17.8996C27.2502 17.6947 27.9564 17.6513 28.6434 17.7731C29.3305 17.895 29.9788 18.1785 30.5347 18.6002L29.64 19.7589C29.1283 19.3751 28.5051 19.169 27.8654 19.1722C27.3937 19.1727 26.9291 19.2869 26.511 19.5051C26.0929 19.7233 25.7335 20.0391 25.4635 20.4258C25.1934 20.8124 25.0205 21.2585 24.9595 21.7262C24.8985 22.1939 24.9512 22.6694 25.1131 23.1124C25.275 23.5554 25.5413 23.9528 25.8895 24.271C26.2376 24.5891 26.6574 24.8186 27.1131 24.94C27.5689 25.0614 28.0472 25.0712 28.5075 24.9684C28.9678 24.8656 29.3965 24.6533 29.7574 24.3496L30.696 25.4789C29.9026 26.1434 28.9003 26.5069 27.8654 26.5056Z" fill="white"/>
</g>
<defs>
<clipPath id="clip0_8996_1545">
<rect width="44" height="44" fill="white" transform="translate(0 0.105469)"/>
</clipPath>
</defs>
</svg>
