<svg width="61" height="61" viewBox="0 0 61 61" fill="none" xmlns="http://www.w3.org/2000/svg">
<g clip-path="url(#clip0_9011_1524)">
<path fill-rule="evenodd" clip-rule="evenodd" d="M30.6666 0.105469C47.2352 0.105469 60.6666 13.5369 60.6666 30.1055C60.6666 46.674 47.2352 60.1055 30.6666 60.1055C14.0981 60.1055 0.666626 46.674 0.666626 30.1055C0.666626 13.5369 14.0981 0.105469 30.6666 0.105469ZM31.3396 29.3343C31.3366 29.0448 31.2196 28.7683 31.0139 28.5647C30.8081 28.3611 30.5304 28.2469 30.2409 28.2469C29.9515 28.2469 29.6738 28.3611 29.468 28.5647C29.2623 28.7683 29.1452 29.0448 29.1423 29.3343V29.4189C29.1452 29.7083 29.2623 29.9849 29.468 30.1885C29.6738 30.3921 29.9515 30.5063 30.2409 30.5063C30.5304 30.5063 30.8081 30.3921 31.0139 30.1885C31.2196 29.9849 31.3366 29.7083 31.3396 29.4189V29.3343ZM27.1167 29.3343C27.1137 29.0449 26.9966 28.7683 26.7909 28.5648C26.5852 28.3612 26.3075 28.247 26.0181 28.247C25.7287 28.247 25.451 28.3612 25.2453 28.5648C25.0396 28.7683 24.9225 29.0449 24.9195 29.3343V29.4189C24.9195 29.7102 25.0353 29.9897 25.2413 30.1957C25.4473 30.4017 25.7268 30.5175 26.0181 30.5175C26.3095 30.5175 26.589 30.4017 26.795 30.1957C27.001 29.9897 27.1168 29.7102 27.1168 29.4189V29.3344L27.1167 29.3343ZM22.8938 29.3343C22.8908 29.0449 22.7738 28.7683 22.5681 28.5648C22.3624 28.3612 22.0846 28.247 21.7952 28.247C21.5058 28.247 21.2281 28.3612 21.0224 28.5648C20.8167 28.7683 20.6997 29.0449 20.6967 29.3343V29.4189C20.6967 29.7102 20.8124 29.9897 21.0184 30.1957C21.2245 30.4017 21.5039 30.5175 21.7953 30.5175C22.0867 30.5175 22.3661 30.4017 22.5721 30.1957C22.7782 29.9897 22.8939 29.7102 22.8939 29.4189V29.3344L22.8938 29.3343ZM39.6384 37.1986C41.1758 38.4311 42.729 39.2142 44.276 39.5379C43.6298 38.4325 43.0415 37.3296 42.5174 36.2407C42.41 36.0174 42.3812 35.7644 42.4356 35.5227C42.4901 35.281 42.6246 35.0648 42.8174 34.9092C44.9001 33.2284 46.0476 30.9843 46.0475 28.5894C46.0475 23.7115 41.2327 19.7432 35.3152 19.7433C34.4957 19.7434 33.6781 19.8216 32.8735 19.9768C33.6626 20.3976 34.4057 20.8995 35.0907 21.4744C37.5783 23.5652 38.9477 26.3611 38.9476 29.3474C38.9474 32.3337 37.5785 35.1295 35.0907 37.2205C35.0076 37.2908 34.9239 37.3584 34.8386 37.4265C34.9973 37.432 35.156 37.436 35.3152 37.4361C36.4459 37.4378 37.5717 37.2893 38.6633 36.9946C38.8304 36.9494 39.0058 36.9444 39.1752 36.9799C39.3447 37.0153 39.5034 37.0903 39.6384 37.1986ZM22.6696 37.7525C23.7613 38.0469 24.8871 38.1952 26.0177 38.1935C31.9356 38.1935 36.7501 34.2253 36.7499 29.3474C36.7498 24.4695 31.936 20.5012 26.0177 20.5014C20.0994 20.5015 15.2854 24.4693 15.2854 29.3474C15.2854 31.7418 16.4328 33.9862 18.5155 35.6666C18.7082 35.8222 18.8427 36.0384 18.8972 36.2801C18.9516 36.5218 18.9228 36.7748 18.8155 36.9981C18.2915 38.087 17.7031 39.1904 17.0569 40.296C18.6038 39.972 20.1573 39.189 21.6945 37.9559C21.8295 37.8475 21.9883 37.7727 22.1577 37.7373C22.3272 37.702 22.5026 37.7072 22.6696 37.7525ZM44.8675 36.0374C45.791 35.1829 46.5606 34.1761 47.143 33.0608C47.8661 31.6813 48.244 30.147 48.2445 28.5894C48.2445 25.603 46.8747 22.8071 44.3876 20.7163C41.9555 18.6721 38.7331 17.546 35.315 17.546C33.3256 17.5424 31.3559 17.9392 29.5231 18.7126C28.3747 18.4398 27.1982 18.3027 26.0178 18.3041C22.5998 18.3041 19.3773 19.4291 16.9451 21.4744C14.4584 23.5651 13.0885 26.3612 13.0885 29.3474C13.0891 30.905 13.4671 32.4393 14.1901 33.8189C14.7725 34.9341 15.5423 35.941 16.4657 36.7955C15.7386 38.2238 14.9397 39.6145 14.0721 40.9621C13.968 41.1242 13.9084 41.3109 13.8992 41.5034C13.89 41.6958 13.9316 41.8873 14.0198 42.0587C14.108 42.23 14.2397 42.3751 14.4017 42.4795C14.5636 42.5839 14.7502 42.6438 14.9426 42.6533C15.1055 42.6607 15.2675 42.665 15.4301 42.665C17.8713 42.665 20.2903 41.7731 22.6338 40.0091C23.7439 40.2637 24.8793 40.3918 26.0183 40.3909C28.0116 40.3987 29.9858 40.0016 31.8212 39.2236C34.0816 39.7608 36.4354 39.7702 38.7001 39.251C41.0438 41.0156 43.4627 41.907 45.9037 41.907C46.0659 41.907 46.2284 41.903 46.3913 41.8952C46.5837 41.8858 46.7703 41.826 46.9323 41.7217C47.0942 41.6174 47.2259 41.4723 47.3141 41.301C47.4023 41.1298 47.4439 40.9383 47.4348 40.7459C47.4256 40.5534 47.366 40.3668 47.2619 40.2047C46.3939 38.857 45.5948 37.4661 44.8679 36.0374H44.8675Z" fill="#4E5560"/>
</g>
<defs>
<clipPath id="clip0_9011_1524">
<rect width="60" height="60" fill="white" transform="translate(0.666626 0.105469)"/>
</clipPath>
</defs>
</svg>
