<svg width="44" height="45" viewBox="0 0 44 45" fill="none" xmlns="http://www.w3.org/2000/svg">
<g clip-path="url(#clip0_8996_101)">
<path d="M22 44.1055C34.1503 44.1055 44 34.2557 44 22.1055C44 9.9552 34.1503 0.105469 22 0.105469C9.84974 0.105469 0 9.9552 0 22.1055C0 34.2557 9.84974 44.1055 22 44.1055Z" fill="url(#paint0_linear_8996_101)"/>
<path fill-rule="evenodd" clip-rule="evenodd" d="M9.9569 21.8739C16.3703 19.0796 20.647 17.2375 22.7868 16.3475C28.8964 13.8063 30.166 13.3648 30.9934 13.3503C31.1754 13.347 31.5823 13.3922 31.8459 13.606C32.0685 13.7866 32.1297 14.0306 32.159 14.2018C32.1883 14.373 32.2248 14.7631 32.1958 15.0679C31.8647 18.5466 30.4322 26.9885 29.7033 30.8848C29.3949 32.5334 28.7877 33.0862 28.1998 33.1403C26.9223 33.2578 25.9521 32.296 24.7147 31.4848C22.7784 30.2156 21.6846 29.4255 19.8051 28.1869C17.633 26.7555 19.041 25.9688 20.2789 24.6831C20.6029 24.3466 26.2319 19.2266 26.3409 18.7621C26.3545 18.704 26.3671 18.4875 26.2385 18.3732C26.1099 18.2588 25.92 18.2979 25.783 18.329C25.5888 18.3731 22.4956 20.4176 16.5033 24.4626C15.6253 25.0655 14.83 25.3592 14.1175 25.3438C13.3319 25.3269 11.8209 24.8997 10.6977 24.5346C9.3199 24.0867 8.22489 23.8499 8.32024 23.0893C8.36991 22.6932 8.91546 22.288 9.9569 21.8739Z" fill="white"/>
</g>
<defs>
<linearGradient id="paint0_linear_8996_101" x1="2200" y1="0.105469" x2="2200" y2="4367.47" gradientUnits="userSpaceOnUse">
<stop stop-color="#2AABEE"/>
<stop offset="1" stop-color="#229ED9"/>
</linearGradient>
<clipPath id="clip0_8996_101">
<rect width="44" height="44" fill="white" transform="translate(0 0.105469)"/>
</clipPath>
</defs>
</svg>
