<svg width="44" height="45" viewBox="0 0 44 45" fill="none" xmlns="http://www.w3.org/2000/svg">
<g clip-path="url(#clip0_8996_2294)">
<path d="M0 21.2255C0 11.2694 0 6.29137 3.09295 3.19842C6.1859 0.105469 11.1639 0.105469 21.12 0.105469H22.88C32.8361 0.105469 37.8141 0.105469 40.907 3.19842C44 6.29137 44 11.2694 44 21.2255V22.9855C44 32.9415 44 37.9196 40.907 41.0125C37.8141 44.1055 32.8361 44.1055 22.88 44.1055H21.12C11.1639 44.1055 6.1859 44.1055 3.09295 41.0125C0 37.9196 0 32.9415 0 22.9855V21.2255Z" fill="#0077FF"/>
<path d="M23.413 31.8047C13.3847 31.8047 7.66476 24.9297 7.42642 13.4897H12.4497C12.6147 21.8864 16.318 25.443 19.2513 26.1764V13.4897H23.9815V20.7314C26.8781 20.4197 29.9211 17.1197 30.9478 13.4897H35.6779C34.8896 17.9631 31.5896 21.263 29.2429 22.6197C31.5896 23.7197 35.3481 26.5981 36.7781 31.8047H31.5713C30.4529 28.3214 27.6665 25.6264 23.9815 25.2597V31.8047H23.413Z" fill="white"/>
</g>
<defs>
<clipPath id="clip0_8996_2294">
<rect width="44" height="44" fill="white" transform="translate(0 0.105469)"/>
</clipPath>
</defs>
</svg>
