<svg width="44" height="45" viewBox="0 0 44 45" fill="none" xmlns="http://www.w3.org/2000/svg">
<g clip-path="url(#clip0_8996_1759)">
<path d="M0.0719452 22.1055C0.0719452 9.95487 9.91914 0.105469 22.0719 0.105469C34.2203 0.105469 44.0719 9.95487 44.0719 22.1055C44.0719 34.2561 34.2203 44.1055 22.0719 44.1055C9.91914 44.1055 0.0719452 34.2561 0.0719452 22.1055Z" fill="#FC3F1D"/>
<path d="M24.8806 12.6023H22.8544C19.1398 12.6023 17.1859 14.4837 17.1859 17.2577C17.1859 20.3934 18.5367 21.8626 21.3107 23.7463L23.6022 25.29L17.0171 35.1293H12.0964L18.0061 26.3272C14.6072 23.891 12.6994 21.5249 12.6994 17.523C12.6994 12.5058 16.197 9.08057 22.8303 9.08057H29.4154V35.1052H24.8806V12.6023Z" fill="white"/>
</g>
<defs>
<clipPath id="clip0_8996_1759">
<rect width="44" height="44" fill="white" transform="translate(0 0.105469)"/>
</clipPath>
</defs>
</svg>
